<?xml version="1.0" encoding="UTF-8" standalone="no"?>
<!DOCTYPE svg PUBLIC "-//W3C//DTD SVG 1.1//EN" "http://www.w3.org/Graphics/SVG/1.1/DTD/svg11.dtd">
<!-- Microsoft Visio, SVG Export에서 생성되었습니다. java_socket_communication_flow.svg 페이지-1 -->
<svg xmlns="http://www.w3.org/2000/svg" xmlns:xlink="http://www.w3.org/1999/xlink" xmlns:ev="http://www.w3.org/2001/xml-events"
		xmlns:v="http://schemas.microsoft.com/visio/2003/SVGExtensions/" width="5.90885in" height="4.33404in"
		viewBox="0 0 425.437 312.051" xml:space="preserve" color-interpolation-filters="sRGB" class="st13">
	<v:documentProperties v:langID="1042" v:metric="true" v:viewMarkup="false"/>

	<style type="text/css">
	<![CDATA[
		.st1 {fill:#ffffff;stroke:#000000;stroke-linecap:round;stroke-linejoin:round;stroke-width:0.24}
		.st2 {fill:#000000;font-family:맑은 고딕;font-size:0.833336em}
		.st3 {marker-end:url(#mrkr5-29);stroke:#000000;stroke-linecap:round;stroke-linejoin:round;stroke-width:0.75}
		.st4 {fill:#000000;fill-opacity:1;stroke:#000000;stroke-opacity:1;stroke-width:0.22935779816514}
		.st5 {marker-end:url(#mrkr5-29);stroke:#000000;stroke-dasharray:5.25,3.75;stroke-linecap:round;stroke-linejoin:round;stroke-width:0.75}
		.st6 {marker-end:url(#mrkr5-29);marker-start:url(#mrkr5-61);stroke:#000000;stroke-linecap:round;stroke-linejoin:round;stroke-width:0.75}
		.st7 {marker-end:url(#mrkr5-29);marker-start:url(#mrkr5-61);stroke:#000000;stroke-dasharray:5.25,3.75;stroke-linecap:round;stroke-linejoin:round;stroke-width:0.75}
		.st8 {fill:none;stroke:none;stroke-linecap:round;stroke-linejoin:round;stroke-width:0.75}
		.st9 {fill:#000000;font-family:맑은 고딕;font-size:1.00001em}
		.st10 {fill:#000000;font-family:맑은 고딕;font-size:0.75em}
		.st11 {fill:#000000;font-family:맑은 고딕;font-size:0.666664em}
		.st12 {stroke:#000000;stroke-linecap:round;stroke-linejoin:round;stroke-width:0.75}
		.st13 {fill:none;fill-rule:evenodd;font-size:12px;overflow:visible;stroke-linecap:square;stroke-miterlimit:3}
	]]>
	</style>

	<defs id="Markers">
		<g id="lend5">
			<path d="M 2 1 L 0 0 L 1.98117 -0.993387 C 1.67173 -0.364515 1.67301 0.372641 1.98465 1.00043 " style="stroke:none"/>
		</g>
		<marker id="mrkr5-29" class="st4" v:arrowType="5" v:arrowSize="2" v:setback="7.63" refX="-7.63" orient="auto"
				markerUnits="strokeWidth" overflow="visible">
			<use xlink:href="#lend5" transform="scale(-4.36,-4.36) "/>
		</marker>
		<marker id="mrkr5-61" class="st4" v:arrowType="5" v:arrowSize="2" v:setback="7.15" refX="7.15" orient="auto"
				markerUnits="strokeWidth" overflow="visible">
			<use xlink:href="#lend5" transform="scale(4.36) "/>
		</marker>
	</defs>
	<g v:mID="0" v:index="1" v:groupContext="foregroundPage">
		<title>페이지-1</title>
		<v:pageProperties v:drawingScale="0.0393701" v:pageScale="0.0393701" v:drawingUnits="24" v:shadowOffsetX="8.50394"
				v:shadowOffsetY="-8.50394"/>
		<v:layer v:name="연결선" v:index="0"/>
		<g id="shape31-1" v:mID="31" v:groupContext="shape" transform="translate(0.12,-0.12)">
			<title>사각형</title>
			<v:userDefs>
				<v:ud v:nameU="visVersion" v:val="VT0(15):26"/>
			</v:userDefs>
			<rect x="0" y="0.239989" width="425.197" height="311.811" class="st1"/>
		</g>
		<g id="shape1-3" v:mID="1" v:groupContext="shape" transform="translate(14.2932,-170.199)">
			<title>모서리가 둥근 직사각형</title>
			<desc>socket()</desc>
			<v:userDefs>
				<v:ud v:nameU="CTypeTopLeftSnip" v:prompt="" v:val="VT0(0):5"/>
				<v:ud v:nameU="CTypeTopRightSnip" v:prompt="" v:val="VT0(0):5"/>
				<v:ud v:nameU="CTypeBotLeftSnip" v:prompt="" v:val="VT0(0):5"/>
				<v:ud v:nameU="CTypeBotRightSnip" v:prompt="" v:val="VT0(0):5"/>
				<v:ud v:nameU="CornerLockHoriz" v:prompt="" v:val="VT0(1):5"/>
				<v:ud v:nameU="CornerLockVert" v:prompt="" v:val="VT0(1):5"/>
				<v:ud v:nameU="CornerLockDiag" v:prompt="" v:val="VT0(0):5"/>
				<v:ud v:nameU="TopLeftOffset" v:prompt="" v:val="VT0(0.15748031496063):24"/>
				<v:ud v:nameU="TopRightOffset" v:prompt="" v:val="VT0(0.15748031496063):24"/>
				<v:ud v:nameU="BotLeftOffset" v:prompt="" v:val="VT0(0.15748031496063):24"/>
				<v:ud v:nameU="BotRightOffset" v:prompt="" v:val="VT0(0.15748031496063):24"/>
				<v:ud v:nameU="visVersion" v:prompt="" v:val="VT0(15):26"/>
			</v:userDefs>
			<v:textBlock v:margins="rect(4,4,4,4)" v:tabSpace="42.5197"/>
			<v:textRect cx="56.6929" cy="297.878" width="113.39" height="28.3465"/>
			<path d="M11.34 312.05 L102.05 312.05 A11.3384 11.3384 -180 0 0 113.39 300.71 L113.39 295.04 A11.3384 11.3384 -180 0
						 0 102.05 283.7 L11.34 283.7 A11.3384 11.3384 -180 0 0 0 295.04 L0 300.71 A11.3384 11.3384 -180 0 0 11.34
						 312.05 Z" class="st1"/>
			<text x="39.19" y="300.88" class="st2" v:langID="1042"><v:paragraph v:horizAlign="1"/><v:tabList/>socket()</text>		</g>
		<g id="shape3-6" v:mID="3" v:groupContext="shape" transform="translate(14.2932,-99.3326)">
			<title>모서리가 둥근 직사각형.3</title>
			<desc>write()/read()</desc>
			<v:userDefs>
				<v:ud v:nameU="CTypeTopLeftSnip" v:prompt="" v:val="VT0(0):5"/>
				<v:ud v:nameU="CTypeTopRightSnip" v:prompt="" v:val="VT0(0):5"/>
				<v:ud v:nameU="CTypeBotLeftSnip" v:prompt="" v:val="VT0(0):5"/>
				<v:ud v:nameU="CTypeBotRightSnip" v:prompt="" v:val="VT0(0):5"/>
				<v:ud v:nameU="CornerLockHoriz" v:prompt="" v:val="VT0(1):5"/>
				<v:ud v:nameU="CornerLockVert" v:prompt="" v:val="VT0(1):5"/>
				<v:ud v:nameU="CornerLockDiag" v:prompt="" v:val="VT0(0):5"/>
				<v:ud v:nameU="TopLeftOffset" v:prompt="" v:val="VT0(0.15748031496063):24"/>
				<v:ud v:nameU="TopRightOffset" v:prompt="" v:val="VT0(0.15748031496063):24"/>
				<v:ud v:nameU="BotLeftOffset" v:prompt="" v:val="VT0(0.15748031496063):24"/>
				<v:ud v:nameU="BotRightOffset" v:prompt="" v:val="VT0(0.15748031496063):24"/>
				<v:ud v:nameU="visVersion" v:prompt="" v:val="VT0(15):26"/>
			</v:userDefs>
			<v:textBlock v:margins="rect(4,4,4,4)" v:tabSpace="42.5197"/>
			<v:textRect cx="56.6929" cy="297.878" width="113.39" height="28.3465"/>
			<path d="M11.34 312.05 L102.05 312.05 A11.3384 11.3384 -180 0 0 113.39 300.71 L113.39 295.04 A11.3384 11.3384 -180 0
						 0 102.05 283.7 L11.34 283.7 A11.3384 11.3384 -180 0 0 0 295.04 L0 300.71 A11.3384 11.3384 -180 0 0 11.34
						 312.05 Z" class="st1"/>
			<text x="27.49" y="300.88" class="st2" v:langID="1042"><v:paragraph v:horizAlign="1"/><v:tabList/>write()/read()</text>		</g>
		<g id="shape4-9" v:mID="4" v:groupContext="shape" transform="translate(14.2932,-28.4665)">
			<title>모서리가 둥근 직사각형.4</title>
			<desc>close()</desc>
			<v:userDefs>
				<v:ud v:nameU="CTypeTopLeftSnip" v:prompt="" v:val="VT0(0):5"/>
				<v:ud v:nameU="CTypeTopRightSnip" v:prompt="" v:val="VT0(0):5"/>
				<v:ud v:nameU="CTypeBotLeftSnip" v:prompt="" v:val="VT0(0):5"/>
				<v:ud v:nameU="CTypeBotRightSnip" v:prompt="" v:val="VT0(0):5"/>
				<v:ud v:nameU="CornerLockHoriz" v:prompt="" v:val="VT0(1):5"/>
				<v:ud v:nameU="CornerLockVert" v:prompt="" v:val="VT0(1):5"/>
				<v:ud v:nameU="CornerLockDiag" v:prompt="" v:val="VT0(0):5"/>
				<v:ud v:nameU="TopLeftOffset" v:prompt="" v:val="VT0(0.15748031496063):24"/>
				<v:ud v:nameU="TopRightOffset" v:prompt="" v:val="VT0(0.15748031496063):24"/>
				<v:ud v:nameU="BotLeftOffset" v:prompt="" v:val="VT0(0.15748031496063):24"/>
				<v:ud v:nameU="BotRightOffset" v:prompt="" v:val="VT0(0.15748031496063):24"/>
				<v:ud v:nameU="visVersion" v:prompt="" v:val="VT0(15):26"/>
			</v:userDefs>
			<v:textBlock v:margins="rect(4,4,4,4)" v:tabSpace="42.5197"/>
			<v:textRect cx="56.6929" cy="297.878" width="113.39" height="28.3465"/>
			<path d="M11.34 312.05 L102.05 312.05 A11.3384 11.3384 -180 0 0 113.39 300.71 L113.39 295.04 A11.3384 11.3384 -180 0
						 0 102.05 283.7 L11.34 283.7 A11.3384 11.3384 -180 0 0 0 295.04 L0 300.71 A11.3384 11.3384 -180 0 0 11.34
						 312.05 Z" class="st1"/>
			<text x="42.22" y="300.88" class="st2" v:langID="1042"><v:paragraph v:horizAlign="1"/><v:tabList/>close()</text>		</g>
		<g id="shape5-12" v:mID="5" v:groupContext="shape" transform="translate(269.411,-241.065)">
			<title>모서리가 둥근 직사각형.5</title>
			<desc>serverSocket()</desc>
			<v:userDefs>
				<v:ud v:nameU="CTypeTopLeftSnip" v:prompt="" v:val="VT0(0):5"/>
				<v:ud v:nameU="CTypeTopRightSnip" v:prompt="" v:val="VT0(0):5"/>
				<v:ud v:nameU="CTypeBotLeftSnip" v:prompt="" v:val="VT0(0):5"/>
				<v:ud v:nameU="CTypeBotRightSnip" v:prompt="" v:val="VT0(0):5"/>
				<v:ud v:nameU="CornerLockHoriz" v:prompt="" v:val="VT0(1):5"/>
				<v:ud v:nameU="CornerLockVert" v:prompt="" v:val="VT0(1):5"/>
				<v:ud v:nameU="CornerLockDiag" v:prompt="" v:val="VT0(0):5"/>
				<v:ud v:nameU="TopLeftOffset" v:prompt="" v:val="VT0(0.15748031496063):24"/>
				<v:ud v:nameU="TopRightOffset" v:prompt="" v:val="VT0(0.15748031496063):24"/>
				<v:ud v:nameU="BotLeftOffset" v:prompt="" v:val="VT0(0.15748031496063):24"/>
				<v:ud v:nameU="BotRightOffset" v:prompt="" v:val="VT0(0.15748031496063):24"/>
				<v:ud v:nameU="visVersion" v:prompt="" v:val="VT0(15):26"/>
			</v:userDefs>
			<v:textBlock v:margins="rect(4,4,4,4)" v:tabSpace="42.5197"/>
			<v:textRect cx="56.6929" cy="297.878" width="113.39" height="28.3465"/>
			<path d="M11.34 312.05 L102.05 312.05 A11.3384 11.3384 -180 0 0 113.39 300.71 L113.39 295.04 A11.3384 11.3384 -180 0
						 0 102.05 283.7 L11.34 283.7 A11.3384 11.3384 -180 0 0 0 295.04 L0 300.71 A11.3384 11.3384 -180 0 0 11.34
						 312.05 Z" class="st1"/>
			<text x="25.15" y="300.88" class="st2" v:langID="1042"><v:paragraph v:horizAlign="1"/><v:tabList/>serverSocket()</text>		</g>
		<g id="shape7-15" v:mID="7" v:groupContext="shape" transform="translate(269.411,-99.3326)">
			<title>모서리가 둥근 직사각형.7</title>
			<desc>write()/read()</desc>
			<v:userDefs>
				<v:ud v:nameU="CTypeTopLeftSnip" v:prompt="" v:val="VT0(0):5"/>
				<v:ud v:nameU="CTypeTopRightSnip" v:prompt="" v:val="VT0(0):5"/>
				<v:ud v:nameU="CTypeBotLeftSnip" v:prompt="" v:val="VT0(0):5"/>
				<v:ud v:nameU="CTypeBotRightSnip" v:prompt="" v:val="VT0(0):5"/>
				<v:ud v:nameU="CornerLockHoriz" v:prompt="" v:val="VT0(1):5"/>
				<v:ud v:nameU="CornerLockVert" v:prompt="" v:val="VT0(1):5"/>
				<v:ud v:nameU="CornerLockDiag" v:prompt="" v:val="VT0(0):5"/>
				<v:ud v:nameU="TopLeftOffset" v:prompt="" v:val="VT0(0.15748031496063):24"/>
				<v:ud v:nameU="TopRightOffset" v:prompt="" v:val="VT0(0.15748031496063):24"/>
				<v:ud v:nameU="BotLeftOffset" v:prompt="" v:val="VT0(0.15748031496063):24"/>
				<v:ud v:nameU="BotRightOffset" v:prompt="" v:val="VT0(0.15748031496063):24"/>
				<v:ud v:nameU="visVersion" v:prompt="" v:val="VT0(15):26"/>
			</v:userDefs>
			<v:textBlock v:margins="rect(4,4,4,4)" v:tabSpace="42.5197"/>
			<v:textRect cx="56.6929" cy="297.878" width="113.39" height="28.3465"/>
			<path d="M11.34 312.05 L102.05 312.05 A11.3384 11.3384 -180 0 0 113.39 300.71 L113.39 295.04 A11.3384 11.3384 -180 0
						 0 102.05 283.7 L11.34 283.7 A11.3384 11.3384 -180 0 0 0 295.04 L0 300.71 A11.3384 11.3384 -180 0 0 11.34
						 312.05 Z" class="st1"/>
			<text x="27.49" y="300.88" class="st2" v:langID="1042"><v:paragraph v:horizAlign="1"/><v:tabList/>write()/read()</text>		</g>
		<g id="shape8-18" v:mID="8" v:groupContext="shape" transform="translate(269.411,-28.4665)">
			<title>모서리가 둥근 직사각형.8</title>
			<desc>close()</desc>
			<v:userDefs>
				<v:ud v:nameU="CTypeTopLeftSnip" v:prompt="" v:val="VT0(0):5"/>
				<v:ud v:nameU="CTypeTopRightSnip" v:prompt="" v:val="VT0(0):5"/>
				<v:ud v:nameU="CTypeBotLeftSnip" v:prompt="" v:val="VT0(0):5"/>
				<v:ud v:nameU="CTypeBotRightSnip" v:prompt="" v:val="VT0(0):5"/>
				<v:ud v:nameU="CornerLockHoriz" v:prompt="" v:val="VT0(1):5"/>
				<v:ud v:nameU="CornerLockVert" v:prompt="" v:val="VT0(1):5"/>
				<v:ud v:nameU="CornerLockDiag" v:prompt="" v:val="VT0(0):5"/>
				<v:ud v:nameU="TopLeftOffset" v:prompt="" v:val="VT0(0.15748031496063):24"/>
				<v:ud v:nameU="TopRightOffset" v:prompt="" v:val="VT0(0.15748031496063):24"/>
				<v:ud v:nameU="BotLeftOffset" v:prompt="" v:val="VT0(0.15748031496063):24"/>
				<v:ud v:nameU="BotRightOffset" v:prompt="" v:val="VT0(0.15748031496063):24"/>
				<v:ud v:nameU="visVersion" v:prompt="" v:val="VT0(15):26"/>
			</v:userDefs>
			<v:textBlock v:margins="rect(4,4,4,4)" v:tabSpace="42.5197"/>
			<v:textRect cx="56.6929" cy="297.878" width="113.39" height="28.3465"/>
			<path d="M11.34 312.05 L102.05 312.05 A11.3384 11.3384 -180 0 0 113.39 300.71 L113.39 295.04 A11.3384 11.3384 -180 0
						 0 102.05 283.7 L11.34 283.7 A11.3384 11.3384 -180 0 0 0 295.04 L0 300.71 A11.3384 11.3384 -180 0 0 11.34
						 312.05 Z" class="st1"/>
			<text x="42.22" y="300.88" class="st2" v:langID="1042"><v:paragraph v:horizAlign="1"/><v:tabList/>close()</text>		</g>
		<g id="shape10-21" v:mID="10" v:groupContext="shape" transform="translate(269.411,-170.199)">
			<title>모서리가 둥근 직사각형.12</title>
			<desc>accept()</desc>
			<v:userDefs>
				<v:ud v:nameU="CTypeTopLeftSnip" v:prompt="" v:val="VT0(0):5"/>
				<v:ud v:nameU="CTypeTopRightSnip" v:prompt="" v:val="VT0(0):5"/>
				<v:ud v:nameU="CTypeBotLeftSnip" v:prompt="" v:val="VT0(0):5"/>
				<v:ud v:nameU="CTypeBotRightSnip" v:prompt="" v:val="VT0(0):5"/>
				<v:ud v:nameU="CornerLockHoriz" v:prompt="" v:val="VT0(1):5"/>
				<v:ud v:nameU="CornerLockVert" v:prompt="" v:val="VT0(1):5"/>
				<v:ud v:nameU="CornerLockDiag" v:prompt="" v:val="VT0(0):5"/>
				<v:ud v:nameU="TopLeftOffset" v:prompt="" v:val="VT0(0.15748031496063):24"/>
				<v:ud v:nameU="TopRightOffset" v:prompt="" v:val="VT0(0.15748031496063):24"/>
				<v:ud v:nameU="BotLeftOffset" v:prompt="" v:val="VT0(0.15748031496063):24"/>
				<v:ud v:nameU="BotRightOffset" v:prompt="" v:val="VT0(0.15748031496063):24"/>
				<v:ud v:nameU="visVersion" v:prompt="" v:val="VT0(15):26"/>
			</v:userDefs>
			<v:textBlock v:margins="rect(4,4,4,4)" v:tabSpace="42.5197"/>
			<v:textRect cx="56.6929" cy="297.878" width="113.39" height="28.3465"/>
			<path d="M11.34 312.05 L102.05 312.05 A11.3384 11.3384 -180 0 0 113.39 300.71 L113.39 295.04 A11.3384 11.3384 -180 0
						 0 102.05 283.7 L11.34 283.7 A11.3384 11.3384 -180 0 0 0 295.04 L0 300.71 A11.3384 11.3384 -180 0 0 11.34
						 312.05 Z" class="st1"/>
			<text x="38.92" y="300.88" class="st2" v:langID="1042"><v:paragraph v:horizAlign="1"/><v:tabList/>accept()</text>		</g>
		<g id="shape12-24" v:mID="12" v:groupContext="shape" transform="translate(383.037,141.852) rotate(90)">
			<title>시트.12</title>
			<path d="M0 312.05 L36.8 312.05" class="st3"/>
		</g>
		<g id="shape13-30" v:mID="13" v:groupContext="shape" transform="translate(383.037,212.718) rotate(90)">
			<title>시트.13</title>
			<path d="M0 312.05 L36.8 312.05" class="st3"/>
		</g>
		<g id="shape14-35" v:mID="14" v:groupContext="shape" transform="translate(638.155,212.718) rotate(90)">
			<title>시트.14</title>
			<path d="M0 312.05 L36.8 312.05" class="st3"/>
		</g>
		<g id="shape17-40" v:mID="17" v:groupContext="shape" transform="translate(638.155,70.9861) rotate(90)">
			<title>시트.17</title>
			<path d="M0 312.05 L36.8 312.05" class="st3"/>
		</g>
		<g id="shape18-45" v:mID="18" v:groupContext="shape" transform="translate(638.155,141.852) rotate(90)">
			<title>시트.18</title>
			<path d="M0 312.05 L36.8 312.05" class="st3"/>
		</g>
		<g id="shape20-50" v:mID="20" v:groupContext="shape" v:layerMember="0" transform="translate(127.679,-177.285)">
			<title>동적 연결선.25</title>
			<path d="M0 304.96 L136.01 304.96" class="st5"/>
		</g>
		<g id="shape21-55" v:mID="21" v:groupContext="shape" v:layerMember="0" transform="translate(127.679,-106.419)">
			<title>동적 연결선.26</title>
			<v:textBlock v:margins="rect(4,4,4,4)" v:tabSpace="42.5197"/>
			<path d="M5.36 304.96 L5.72 304.96 L136.01 304.96" class="st6"/>
		</g>
		<g id="shape22-63" v:mID="22" v:groupContext="shape" v:layerMember="0" transform="translate(127.679,-35.5531)">
			<title>동적 연결선.27</title>
			<path d="M5.36 304.96 L5.72 304.96 L136.01 304.96" class="st7"/>
		</g>
		<g id="shape23-70" v:mID="23" v:groupContext="shape" transform="translate(14.2932,-269.411)">
			<title>시트.23</title>
			<desc>Client Socket</desc>
			<v:textBlock v:margins="rect(4,4,4,4)" v:tabSpace="42.5197"/>
			<v:textRect cx="56.6929" cy="297.878" width="113.39" height="28.3465"/>
			<rect x="0" y="283.705" width="113.386" height="28.3465" class="st8"/>
			<text x="21.07" y="301.48" class="st9" v:langID="1042"><v:paragraph v:horizAlign="1"/><v:tabList/>Client Socket</text>		</g>
		<g id="shape24-73" v:mID="24" v:groupContext="shape" transform="translate(269.411,-269.411)">
			<title>시트.24</title>
			<desc>Server Socket</desc>
			<v:textBlock v:margins="rect(4,4,4,4)" v:tabSpace="42.5197"/>
			<v:textRect cx="56.6929" cy="297.878" width="113.39" height="28.3465"/>
			<rect x="0" y="283.705" width="113.386" height="28.3465" class="st8"/>
			<text x="19.73" y="301.48" class="st9" v:langID="1042"><v:paragraph v:horizAlign="1"/><v:tabList/>Server Socket</text>		</g>
		<g id="shape25-76" v:mID="25" v:groupContext="shape" transform="translate(148.939,-184.372)">
			<title>시트.25</title>
			<desc>connection request</desc>
			<v:textBlock v:margins="rect(4,4,4,4)" v:tabSpace="42.5197"/>
			<v:textRect cx="49.6063" cy="304.964" width="99.22" height="14.1732"/>
			<rect x="0" y="297.878" width="99.2126" height="14.1732" class="st8"/>
			<text x="5.92" y="310.36" class="st2" v:langID="1042"><v:paragraph v:horizAlign="1"/><v:tabList/>connection request</text>		</g>
		<g id="shape26-79" v:mID="26" v:groupContext="shape" transform="translate(122.918,-150.517)">
			<title>시트.26</title>
			<v:textBlock v:margins="rect(4,4,4,4)" v:tabSpace="42.5197"/>
			<rect x="0" y="292.051" width="152" height="20" class="st8"/>
		</g>
		<g id="shape27-81" v:mID="27" v:groupContext="shape" transform="translate(148.939,-113.506)">
			<title>시트.27</title>
			<desc>[ data ]</desc>
			<v:textBlock v:margins="rect(4,4,4,4)" v:tabSpace="42.5197"/>
			<v:textRect cx="49.6063" cy="304.964" width="99.22" height="14.1732"/>
			<rect x="0" y="297.878" width="99.2126" height="14.1732" class="st8"/>
			<text x="34.76" y="307.66" class="st10" v:langID="1042"><v:paragraph v:horizAlign="1"/><v:tabList/>[ data ]</text>		</g>
		<g id="shape28-84" v:mID="28" v:groupContext="shape" transform="translate(148.939,-42.6397)">
			<title>시트.28</title>
			<desc>connecion termination</desc>
			<v:textBlock v:margins="rect(4,4,4,4)" v:tabSpace="42.5197"/>
			<v:textRect cx="49.6063" cy="304.964" width="99.22" height="14.1732"/>
			<rect x="0" y="297.878" width="99.2126" height="14.1732" class="st8"/>
			<text x="8.66" y="307.66" class="st11" v:langID="1042"><v:paragraph v:horizAlign="1"/><v:tabList/>connecion termination</text>		</g>
		<g id="shape30-87" v:mID="30" v:groupContext="shape" v:layerMember="0" transform="translate(319.018,-170.199)">
			<title>동적 연결선</title>
			<path d="M7.09 312.05 L7.09 333.31 L77.95 333.31 L77.95 262.44 L7.09 262.44 L7.09 283.7" class="st12"/>
		</g>
	</g>
</svg>
