<?xml version="1.0" encoding="UTF-8" standalone="no"?>
<!DOCTYPE svg PUBLIC "-//W3C//DTD SVG 1.1//EN" "http://www.w3.org/Graphics/SVG/1.1/DTD/svg11.dtd">
<!-- Microsoft Visio, SVG Export에서 생성되었습니다. socket_communication_flow.svg 페이지-1 -->
<svg xmlns="http://www.w3.org/2000/svg" xmlns:xlink="http://www.w3.org/1999/xlink" xmlns:ev="http://www.w3.org/2001/xml-events"
		xmlns:v="http://schemas.microsoft.com/visio/2003/SVGExtensions/" width="5.98811in" height="6.30255in"
		viewBox="0 0 431.144 453.783" xml:space="preserve" color-interpolation-filters="sRGB" class="st9">
	<v:documentProperties v:langID="1042" v:metric="true" v:viewMarkup="false"/>

	<style type="text/css">
	<![CDATA[
		.st1 {fill:#ffffff;stroke:#000000;stroke-linecap:round;stroke-linejoin:round;stroke-width:0.24}
		.st2 {fill:#000000;font-family:맑은 고딕;font-size:0.833336em}
		.st3 {marker-end:url(#mrkr5-38);stroke:#000000;stroke-linecap:round;stroke-linejoin:round;stroke-width:0.75}
		.st4 {fill:#000000;fill-opacity:1;stroke:#000000;stroke-opacity:1;stroke-width:0.22935779816514}
		.st5 {marker-end:url(#mrkr5-38);stroke:#000000;stroke-dasharray:5.25,3.75;stroke-linecap:round;stroke-linejoin:round;stroke-width:0.75}
		.st6 {marker-end:url(#mrkr5-38);marker-start:url(#mrkr5-90);stroke:#000000;stroke-dasharray:5.25,3.75;stroke-linecap:round;stroke-linejoin:round;stroke-width:0.75}
		.st7 {fill:none;stroke:none;stroke-linecap:round;stroke-linejoin:round;stroke-width:0.75}
		.st8 {fill:#000000;font-family:맑은 고딕;font-size:1.00001em}
		.st9 {fill:none;fill-rule:evenodd;font-size:12px;overflow:visible;stroke-linecap:square;stroke-miterlimit:3}
	]]>
	</style>

	<defs id="Markers">
		<g id="lend5">
			<path d="M 2 1 L 0 0 L 1.98117 -0.993387 C 1.67173 -0.364515 1.67301 0.372641 1.98465 1.00043 " style="stroke:none"/>
		</g>
		<marker id="mrkr5-38" class="st4" v:arrowType="5" v:arrowSize="2" v:setback="7.63" refX="-7.63" orient="auto"
				markerUnits="strokeWidth" overflow="visible">
			<use xlink:href="#lend5" transform="scale(-4.36,-4.36) "/>
		</marker>
		<marker id="mrkr5-90" class="st4" v:arrowType="5" v:arrowSize="2" v:setback="7.15" refX="7.15" orient="auto"
				markerUnits="strokeWidth" overflow="visible">
			<use xlink:href="#lend5" transform="scale(4.36) "/>
		</marker>
	</defs>
	<g v:mID="0" v:index="1" v:groupContext="foregroundPage">
		<title>페이지-1</title>
		<v:pageProperties v:drawingScale="0.0393701" v:pageScale="0.0393701" v:drawingUnits="24" v:shadowOffsetX="8.50394"
				v:shadowOffsetY="-8.50394"/>
		<v:layer v:name="연결선" v:index="0"/>
		<g id="shape38-1" v:mID="38" v:groupContext="shape" transform="translate(0.12,-0.12)">
			<title>사각형</title>
			<v:userDefs>
				<v:ud v:nameU="visVersion" v:val="VT0(15):26"/>
			</v:userDefs>
			<rect x="0" y="0.23999" width="425.197" height="453.543" class="st1"/>
		</g>
		<g id="shape1-3" v:mID="1" v:groupContext="shape" transform="translate(14.2932,-382.797)">
			<title>모서리가 둥근 직사각형</title>
			<desc>socket()</desc>
			<v:userDefs>
				<v:ud v:nameU="CTypeTopLeftSnip" v:prompt="" v:val="VT0(0):5"/>
				<v:ud v:nameU="CTypeTopRightSnip" v:prompt="" v:val="VT0(0):5"/>
				<v:ud v:nameU="CTypeBotLeftSnip" v:prompt="" v:val="VT0(0):5"/>
				<v:ud v:nameU="CTypeBotRightSnip" v:prompt="" v:val="VT0(0):5"/>
				<v:ud v:nameU="CornerLockHoriz" v:prompt="" v:val="VT0(1):5"/>
				<v:ud v:nameU="CornerLockVert" v:prompt="" v:val="VT0(1):5"/>
				<v:ud v:nameU="CornerLockDiag" v:prompt="" v:val="VT0(0):5"/>
				<v:ud v:nameU="TopLeftOffset" v:prompt="" v:val="VT0(0.15748031496063):24"/>
				<v:ud v:nameU="TopRightOffset" v:prompt="" v:val="VT0(0.15748031496063):24"/>
				<v:ud v:nameU="BotLeftOffset" v:prompt="" v:val="VT0(0.15748031496063):24"/>
				<v:ud v:nameU="BotRightOffset" v:prompt="" v:val="VT0(0.15748031496063):24"/>
				<v:ud v:nameU="visVersion" v:prompt="" v:val="VT0(15):26"/>
			</v:userDefs>
			<v:textBlock v:margins="rect(4,4,4,4)" v:tabSpace="42.5197"/>
			<v:textRect cx="56.6929" cy="439.61" width="113.39" height="28.3465"/>
			<path d="M11.34 453.78 L102.05 453.78 A11.3384 11.3384 -180 0 0 113.39 442.44 L113.39 436.78 A11.3384 11.3384 -180 0
						 0 102.05 425.44 L11.34 425.44 A11.3384 11.3384 -180 0 0 0 436.78 L0 442.44 A11.3384 11.3384 -180 0 0 11.34
						 453.78 Z" class="st1"/>
			<text x="39.19" y="442.61" class="st2" v:langID="1042"><v:paragraph v:horizAlign="1"/><v:tabList/>socket()</text>		</g>
		<g id="shape2-6" v:mID="2" v:groupContext="shape" transform="translate(14.2932,-198.545)">
			<title>모서리가 둥근 직사각형.2</title>
			<desc>connect()</desc>
			<v:userDefs>
				<v:ud v:nameU="CTypeTopLeftSnip" v:prompt="" v:val="VT0(0):5"/>
				<v:ud v:nameU="CTypeTopRightSnip" v:prompt="" v:val="VT0(0):5"/>
				<v:ud v:nameU="CTypeBotLeftSnip" v:prompt="" v:val="VT0(0):5"/>
				<v:ud v:nameU="CTypeBotRightSnip" v:prompt="" v:val="VT0(0):5"/>
				<v:ud v:nameU="CornerLockHoriz" v:prompt="" v:val="VT0(1):5"/>
				<v:ud v:nameU="CornerLockVert" v:prompt="" v:val="VT0(1):5"/>
				<v:ud v:nameU="CornerLockDiag" v:prompt="" v:val="VT0(0):5"/>
				<v:ud v:nameU="TopLeftOffset" v:prompt="" v:val="VT0(0.15748031496063):24"/>
				<v:ud v:nameU="TopRightOffset" v:prompt="" v:val="VT0(0.15748031496063):24"/>
				<v:ud v:nameU="BotLeftOffset" v:prompt="" v:val="VT0(0.15748031496063):24"/>
				<v:ud v:nameU="BotRightOffset" v:prompt="" v:val="VT0(0.15748031496063):24"/>
				<v:ud v:nameU="visVersion" v:prompt="" v:val="VT0(15):26"/>
			</v:userDefs>
			<v:textBlock v:margins="rect(4,4,4,4)" v:tabSpace="42.5197"/>
			<v:textRect cx="56.6929" cy="439.61" width="113.39" height="28.3465"/>
			<path d="M11.34 453.78 L102.05 453.78 A11.3384 11.3384 -180 0 0 113.39 442.44 L113.39 436.78 A11.3384 11.3384 -180 0
						 0 102.05 425.44 L11.34 425.44 A11.3384 11.3384 -180 0 0 0 436.78 L0 442.44 A11.3384 11.3384 -180 0 0 11.34
						 453.78 Z" class="st1"/>
			<text x="35.74" y="442.61" class="st2" v:langID="1042"><v:paragraph v:horizAlign="1"/><v:tabList/>connect()</text>		</g>
		<g id="shape4-9" v:mID="4" v:groupContext="shape" transform="translate(14.2932,-99.3326)">
			<title>모서리가 둥근 직사각형.4</title>
			<desc>send()/recv()</desc>
			<v:userDefs>
				<v:ud v:nameU="CTypeTopLeftSnip" v:prompt="" v:val="VT0(0):5"/>
				<v:ud v:nameU="CTypeTopRightSnip" v:prompt="" v:val="VT0(0):5"/>
				<v:ud v:nameU="CTypeBotLeftSnip" v:prompt="" v:val="VT0(0):5"/>
				<v:ud v:nameU="CTypeBotRightSnip" v:prompt="" v:val="VT0(0):5"/>
				<v:ud v:nameU="CornerLockHoriz" v:prompt="" v:val="VT0(1):5"/>
				<v:ud v:nameU="CornerLockVert" v:prompt="" v:val="VT0(1):5"/>
				<v:ud v:nameU="CornerLockDiag" v:prompt="" v:val="VT0(0):5"/>
				<v:ud v:nameU="TopLeftOffset" v:prompt="" v:val="VT0(0.15748031496063):24"/>
				<v:ud v:nameU="TopRightOffset" v:prompt="" v:val="VT0(0.15748031496063):24"/>
				<v:ud v:nameU="BotLeftOffset" v:prompt="" v:val="VT0(0.15748031496063):24"/>
				<v:ud v:nameU="BotRightOffset" v:prompt="" v:val="VT0(0.15748031496063):24"/>
				<v:ud v:nameU="visVersion" v:prompt="" v:val="VT0(15):26"/>
			</v:userDefs>
			<v:textBlock v:margins="rect(4,4,4,4)" v:tabSpace="42.5197"/>
			<v:textRect cx="56.6929" cy="439.61" width="113.39" height="28.3465"/>
			<path d="M11.34 453.78 L102.05 453.78 A11.3384 11.3384 -180 0 0 113.39 442.44 L113.39 436.78 A11.3384 11.3384 -180 0
						 0 102.05 425.44 L11.34 425.44 A11.3384 11.3384 -180 0 0 0 436.78 L0 442.44 A11.3384 11.3384 -180 0 0 11.34
						 453.78 Z" class="st1"/>
			<text x="28.63" y="442.61" class="st2" v:langID="1042"><v:paragraph v:horizAlign="1"/><v:tabList/>send()/recv()</text>		</g>
		<g id="shape5-12" v:mID="5" v:groupContext="shape" transform="translate(14.2932,-28.4665)">
			<title>모서리가 둥근 직사각형.5</title>
			<desc>close()</desc>
			<v:userDefs>
				<v:ud v:nameU="CTypeTopLeftSnip" v:prompt="" v:val="VT0(0):5"/>
				<v:ud v:nameU="CTypeTopRightSnip" v:prompt="" v:val="VT0(0):5"/>
				<v:ud v:nameU="CTypeBotLeftSnip" v:prompt="" v:val="VT0(0):5"/>
				<v:ud v:nameU="CTypeBotRightSnip" v:prompt="" v:val="VT0(0):5"/>
				<v:ud v:nameU="CornerLockHoriz" v:prompt="" v:val="VT0(1):5"/>
				<v:ud v:nameU="CornerLockVert" v:prompt="" v:val="VT0(1):5"/>
				<v:ud v:nameU="CornerLockDiag" v:prompt="" v:val="VT0(0):5"/>
				<v:ud v:nameU="TopLeftOffset" v:prompt="" v:val="VT0(0.15748031496063):24"/>
				<v:ud v:nameU="TopRightOffset" v:prompt="" v:val="VT0(0.15748031496063):24"/>
				<v:ud v:nameU="BotLeftOffset" v:prompt="" v:val="VT0(0.15748031496063):24"/>
				<v:ud v:nameU="BotRightOffset" v:prompt="" v:val="VT0(0.15748031496063):24"/>
				<v:ud v:nameU="visVersion" v:prompt="" v:val="VT0(15):26"/>
			</v:userDefs>
			<v:textBlock v:margins="rect(4,4,4,4)" v:tabSpace="42.5197"/>
			<v:textRect cx="56.6929" cy="439.61" width="113.39" height="28.3465"/>
			<path d="M11.34 453.78 L102.05 453.78 A11.3384 11.3384 -180 0 0 113.39 442.44 L113.39 436.78 A11.3384 11.3384 -180 0
						 0 102.05 425.44 L11.34 425.44 A11.3384 11.3384 -180 0 0 0 436.78 L0 442.44 A11.3384 11.3384 -180 0 0 11.34
						 453.78 Z" class="st1"/>
			<text x="42.22" y="442.61" class="st2" v:langID="1042"><v:paragraph v:horizAlign="1"/><v:tabList/>close()</text>		</g>
		<g id="shape7-15" v:mID="7" v:groupContext="shape" transform="translate(269.411,-382.797)">
			<title>모서리가 둥근 직사각형.7</title>
			<desc>socket()</desc>
			<v:userDefs>
				<v:ud v:nameU="CTypeTopLeftSnip" v:prompt="" v:val="VT0(0):5"/>
				<v:ud v:nameU="CTypeTopRightSnip" v:prompt="" v:val="VT0(0):5"/>
				<v:ud v:nameU="CTypeBotLeftSnip" v:prompt="" v:val="VT0(0):5"/>
				<v:ud v:nameU="CTypeBotRightSnip" v:prompt="" v:val="VT0(0):5"/>
				<v:ud v:nameU="CornerLockHoriz" v:prompt="" v:val="VT0(1):5"/>
				<v:ud v:nameU="CornerLockVert" v:prompt="" v:val="VT0(1):5"/>
				<v:ud v:nameU="CornerLockDiag" v:prompt="" v:val="VT0(0):5"/>
				<v:ud v:nameU="TopLeftOffset" v:prompt="" v:val="VT0(0.15748031496063):24"/>
				<v:ud v:nameU="TopRightOffset" v:prompt="" v:val="VT0(0.15748031496063):24"/>
				<v:ud v:nameU="BotLeftOffset" v:prompt="" v:val="VT0(0.15748031496063):24"/>
				<v:ud v:nameU="BotRightOffset" v:prompt="" v:val="VT0(0.15748031496063):24"/>
				<v:ud v:nameU="visVersion" v:prompt="" v:val="VT0(15):26"/>
			</v:userDefs>
			<v:textBlock v:margins="rect(4,4,4,4)" v:tabSpace="42.5197"/>
			<v:textRect cx="56.6929" cy="439.61" width="113.39" height="28.3465"/>
			<path d="M11.34 453.78 L102.05 453.78 A11.3384 11.3384 -180 0 0 113.39 442.44 L113.39 436.78 A11.3384 11.3384 -180 0
						 0 102.05 425.44 L11.34 425.44 A11.3384 11.3384 -180 0 0 0 436.78 L0 442.44 A11.3384 11.3384 -180 0 0 11.34
						 453.78 Z" class="st1"/>
			<text x="39.19" y="442.61" class="st2" v:langID="1042"><v:paragraph v:horizAlign="1"/><v:tabList/>socket()</text>		</g>
		<g id="shape8-18" v:mID="8" v:groupContext="shape" transform="translate(269.411,-241.065)">
			<title>모서리가 둥근 직사각형.8</title>
			<desc>listen()</desc>
			<v:userDefs>
				<v:ud v:nameU="CTypeTopLeftSnip" v:prompt="" v:val="VT0(0):5"/>
				<v:ud v:nameU="CTypeTopRightSnip" v:prompt="" v:val="VT0(0):5"/>
				<v:ud v:nameU="CTypeBotLeftSnip" v:prompt="" v:val="VT0(0):5"/>
				<v:ud v:nameU="CTypeBotRightSnip" v:prompt="" v:val="VT0(0):5"/>
				<v:ud v:nameU="CornerLockHoriz" v:prompt="" v:val="VT0(1):5"/>
				<v:ud v:nameU="CornerLockVert" v:prompt="" v:val="VT0(1):5"/>
				<v:ud v:nameU="CornerLockDiag" v:prompt="" v:val="VT0(0):5"/>
				<v:ud v:nameU="TopLeftOffset" v:prompt="" v:val="VT0(0.15748031496063):24"/>
				<v:ud v:nameU="TopRightOffset" v:prompt="" v:val="VT0(0.15748031496063):24"/>
				<v:ud v:nameU="BotLeftOffset" v:prompt="" v:val="VT0(0.15748031496063):24"/>
				<v:ud v:nameU="BotRightOffset" v:prompt="" v:val="VT0(0.15748031496063):24"/>
				<v:ud v:nameU="visVersion" v:prompt="" v:val="VT0(15):26"/>
			</v:userDefs>
			<v:textBlock v:margins="rect(4,4,4,4)" v:tabSpace="42.5197"/>
			<v:textRect cx="56.6929" cy="439.61" width="113.39" height="28.3465"/>
			<path d="M11.34 453.78 L102.05 453.78 A11.3384 11.3384 -180 0 0 113.39 442.44 L113.39 436.78 A11.3384 11.3384 -180 0
						 0 102.05 425.44 L11.34 425.44 A11.3384 11.3384 -180 0 0 0 436.78 L0 442.44 A11.3384 11.3384 -180 0 0 11.34
						 453.78 Z" class="st1"/>
			<text x="41.73" y="442.61" class="st2" v:langID="1042"><v:paragraph v:horizAlign="1"/><v:tabList/>listen()</text>		</g>
		<g id="shape9-21" v:mID="9" v:groupContext="shape" transform="translate(269.411,-99.3326)">
			<title>모서리가 둥근 직사각형.9</title>
			<desc>send()/recv()</desc>
			<v:userDefs>
				<v:ud v:nameU="CTypeTopLeftSnip" v:prompt="" v:val="VT0(0):5"/>
				<v:ud v:nameU="CTypeTopRightSnip" v:prompt="" v:val="VT0(0):5"/>
				<v:ud v:nameU="CTypeBotLeftSnip" v:prompt="" v:val="VT0(0):5"/>
				<v:ud v:nameU="CTypeBotRightSnip" v:prompt="" v:val="VT0(0):5"/>
				<v:ud v:nameU="CornerLockHoriz" v:prompt="" v:val="VT0(1):5"/>
				<v:ud v:nameU="CornerLockVert" v:prompt="" v:val="VT0(1):5"/>
				<v:ud v:nameU="CornerLockDiag" v:prompt="" v:val="VT0(0):5"/>
				<v:ud v:nameU="TopLeftOffset" v:prompt="" v:val="VT0(0.15748031496063):24"/>
				<v:ud v:nameU="TopRightOffset" v:prompt="" v:val="VT0(0.15748031496063):24"/>
				<v:ud v:nameU="BotLeftOffset" v:prompt="" v:val="VT0(0.15748031496063):24"/>
				<v:ud v:nameU="BotRightOffset" v:prompt="" v:val="VT0(0.15748031496063):24"/>
				<v:ud v:nameU="visVersion" v:prompt="" v:val="VT0(15):26"/>
			</v:userDefs>
			<v:textBlock v:margins="rect(4,4,4,4)" v:tabSpace="42.5197"/>
			<v:textRect cx="56.6929" cy="439.61" width="113.39" height="28.3465"/>
			<path d="M11.34 453.78 L102.05 453.78 A11.3384 11.3384 -180 0 0 113.39 442.44 L113.39 436.78 A11.3384 11.3384 -180 0
						 0 102.05 425.44 L11.34 425.44 A11.3384 11.3384 -180 0 0 0 436.78 L0 442.44 A11.3384 11.3384 -180 0 0 11.34
						 453.78 Z" class="st1"/>
			<text x="28.63" y="442.61" class="st2" v:langID="1042"><v:paragraph v:horizAlign="1"/><v:tabList/>send()/recv()</text>		</g>
		<g id="shape10-24" v:mID="10" v:groupContext="shape" transform="translate(269.411,-28.4665)">
			<title>모서리가 둥근 직사각형.10</title>
			<desc>close()</desc>
			<v:userDefs>
				<v:ud v:nameU="CTypeTopLeftSnip" v:prompt="" v:val="VT0(0):5"/>
				<v:ud v:nameU="CTypeTopRightSnip" v:prompt="" v:val="VT0(0):5"/>
				<v:ud v:nameU="CTypeBotLeftSnip" v:prompt="" v:val="VT0(0):5"/>
				<v:ud v:nameU="CTypeBotRightSnip" v:prompt="" v:val="VT0(0):5"/>
				<v:ud v:nameU="CornerLockHoriz" v:prompt="" v:val="VT0(1):5"/>
				<v:ud v:nameU="CornerLockVert" v:prompt="" v:val="VT0(1):5"/>
				<v:ud v:nameU="CornerLockDiag" v:prompt="" v:val="VT0(0):5"/>
				<v:ud v:nameU="TopLeftOffset" v:prompt="" v:val="VT0(0.15748031496063):24"/>
				<v:ud v:nameU="TopRightOffset" v:prompt="" v:val="VT0(0.15748031496063):24"/>
				<v:ud v:nameU="BotLeftOffset" v:prompt="" v:val="VT0(0.15748031496063):24"/>
				<v:ud v:nameU="BotRightOffset" v:prompt="" v:val="VT0(0.15748031496063):24"/>
				<v:ud v:nameU="visVersion" v:prompt="" v:val="VT0(15):26"/>
			</v:userDefs>
			<v:textBlock v:margins="rect(4,4,4,4)" v:tabSpace="42.5197"/>
			<v:textRect cx="56.6929" cy="439.61" width="113.39" height="28.3465"/>
			<path d="M11.34 453.78 L102.05 453.78 A11.3384 11.3384 -180 0 0 113.39 442.44 L113.39 436.78 A11.3384 11.3384 -180 0
						 0 102.05 425.44 L11.34 425.44 A11.3384 11.3384 -180 0 0 0 436.78 L0 442.44 A11.3384 11.3384 -180 0 0 11.34
						 453.78 Z" class="st1"/>
			<text x="42.22" y="442.61" class="st2" v:langID="1042"><v:paragraph v:horizAlign="1"/><v:tabList/>close()</text>		</g>
		<g id="shape11-27" v:mID="11" v:groupContext="shape" transform="translate(269.411,-311.931)">
			<title>모서리가 둥근 직사각형.11</title>
			<desc>bind()</desc>
			<v:userDefs>
				<v:ud v:nameU="CTypeTopLeftSnip" v:prompt="" v:val="VT0(0):5"/>
				<v:ud v:nameU="CTypeTopRightSnip" v:prompt="" v:val="VT0(0):5"/>
				<v:ud v:nameU="CTypeBotLeftSnip" v:prompt="" v:val="VT0(0):5"/>
				<v:ud v:nameU="CTypeBotRightSnip" v:prompt="" v:val="VT0(0):5"/>
				<v:ud v:nameU="CornerLockHoriz" v:prompt="" v:val="VT0(1):5"/>
				<v:ud v:nameU="CornerLockVert" v:prompt="" v:val="VT0(1):5"/>
				<v:ud v:nameU="CornerLockDiag" v:prompt="" v:val="VT0(0):5"/>
				<v:ud v:nameU="TopLeftOffset" v:prompt="" v:val="VT0(0.15748031496063):24"/>
				<v:ud v:nameU="TopRightOffset" v:prompt="" v:val="VT0(0.15748031496063):24"/>
				<v:ud v:nameU="BotLeftOffset" v:prompt="" v:val="VT0(0.15748031496063):24"/>
				<v:ud v:nameU="BotRightOffset" v:prompt="" v:val="VT0(0.15748031496063):24"/>
				<v:ud v:nameU="visVersion" v:prompt="" v:val="VT0(15):26"/>
			</v:userDefs>
			<v:textBlock v:margins="rect(4,4,4,4)" v:tabSpace="42.5197"/>
			<v:textRect cx="56.6929" cy="439.61" width="113.39" height="28.3465"/>
			<path d="M11.34 453.78 L102.05 453.78 A11.3384 11.3384 -180 0 0 113.39 442.44 L113.39 436.78 A11.3384 11.3384 -180 0
						 0 102.05 425.44 L11.34 425.44 A11.3384 11.3384 -180 0 0 0 436.78 L0 442.44 A11.3384 11.3384 -180 0 0 11.34
						 453.78 Z" class="st1"/>
			<text x="43.51" y="442.61" class="st2" v:langID="1042"><v:paragraph v:horizAlign="1"/><v:tabList/>bind()</text>		</g>
		<g id="shape12-30" v:mID="12" v:groupContext="shape" transform="translate(269.411,-170.199)">
			<title>모서리가 둥근 직사각형.12</title>
			<desc>accept()</desc>
			<v:userDefs>
				<v:ud v:nameU="CTypeTopLeftSnip" v:prompt="" v:val="VT0(0):5"/>
				<v:ud v:nameU="CTypeTopRightSnip" v:prompt="" v:val="VT0(0):5"/>
				<v:ud v:nameU="CTypeBotLeftSnip" v:prompt="" v:val="VT0(0):5"/>
				<v:ud v:nameU="CTypeBotRightSnip" v:prompt="" v:val="VT0(0):5"/>
				<v:ud v:nameU="CornerLockHoriz" v:prompt="" v:val="VT0(1):5"/>
				<v:ud v:nameU="CornerLockVert" v:prompt="" v:val="VT0(1):5"/>
				<v:ud v:nameU="CornerLockDiag" v:prompt="" v:val="VT0(0):5"/>
				<v:ud v:nameU="TopLeftOffset" v:prompt="" v:val="VT0(0.15748031496063):24"/>
				<v:ud v:nameU="TopRightOffset" v:prompt="" v:val="VT0(0.15748031496063):24"/>
				<v:ud v:nameU="BotLeftOffset" v:prompt="" v:val="VT0(0.15748031496063):24"/>
				<v:ud v:nameU="BotRightOffset" v:prompt="" v:val="VT0(0.15748031496063):24"/>
				<v:ud v:nameU="visVersion" v:prompt="" v:val="VT0(15):26"/>
			</v:userDefs>
			<v:textBlock v:margins="rect(4,4,4,4)" v:tabSpace="42.5197"/>
			<v:textRect cx="56.6929" cy="439.61" width="113.39" height="28.3465"/>
			<path d="M11.34 453.78 L102.05 453.78 A11.3384 11.3384 -180 0 0 113.39 442.44 L113.39 436.78 A11.3384 11.3384 -180 0
						 0 102.05 425.44 L11.34 425.44 A11.3384 11.3384 -180 0 0 0 436.78 L0 442.44 A11.3384 11.3384 -180 0 0 11.34
						 453.78 Z" class="st1"/>
			<text x="38.92" y="442.61" class="st2" v:langID="1042"><v:paragraph v:horizAlign="1"/><v:tabList/>accept()</text>		</g>
		<g id="shape13-33" v:mID="13" v:groupContext="shape" transform="translate(524.769,70.9861) rotate(90)">
			<title>시트.13</title>
			<path d="M0 453.78 L150.18 453.78" class="st3"/>
		</g>
		<g id="shape15-39" v:mID="15" v:groupContext="shape" transform="translate(524.769,255.238) rotate(90)">
			<title>시트.15</title>
			<path d="M0 453.78 L65.14 453.78" class="st3"/>
		</g>
		<g id="shape16-44" v:mID="16" v:groupContext="shape" transform="translate(524.769,354.451) rotate(90)">
			<title>시트.16</title>
			<path d="M0 453.78 L36.8 453.78" class="st3"/>
		</g>
		<g id="shape17-49" v:mID="17" v:groupContext="shape" transform="translate(779.888,354.451) rotate(90)">
			<title>시트.17</title>
			<path d="M0 453.78 L36.8 453.78" class="st3"/>
		</g>
		<g id="shape19-54" v:mID="19" v:groupContext="shape" transform="translate(779.888,70.9861) rotate(90)">
			<title>시트.19</title>
			<path d="M0 453.78 L36.8 453.78" class="st3"/>
		</g>
		<g id="shape20-59" v:mID="20" v:groupContext="shape" transform="translate(779.888,141.852) rotate(90)">
			<title>시트.20</title>
			<path d="M0 453.78 L36.8 453.78" class="st3"/>
		</g>
		<g id="shape21-64" v:mID="21" v:groupContext="shape" transform="translate(779.888,212.718) rotate(90)">
			<title>시트.21</title>
			<path d="M0 453.78 L36.8 453.78" class="st3"/>
		</g>
		<g id="shape22-69" v:mID="22" v:groupContext="shape" transform="translate(779.888,283.585) rotate(90)">
			<title>시트.22</title>
			<path d="M0 453.78 L36.8 453.78" class="st3"/>
		</g>
		<g id="shape24-74" v:mID="24" v:groupContext="shape" v:layerMember="0" transform="translate(326.104,-170.199)">
			<title>동적 연결선</title>
			<path d="M0 453.78 L0 478.59 L85.04 478.59 L85.04 368.74 L62.42 368.74" class="st3"/>
		</g>
		<g id="shape25-79" v:mID="25" v:groupContext="shape" v:layerMember="0" transform="translate(127.679,-205.632)">
			<title>동적 연결선.25</title>
			<path d="M0 446.7 L192.7 446.7" class="st5"/>
		</g>
		<g id="shape26-84" v:mID="26" v:groupContext="shape" v:layerMember="0" transform="translate(127.679,-106.419)">
			<title>동적 연결선.26</title>
			<v:textBlock v:margins="rect(4,4,4,4)" v:tabSpace="42.5197"/>
			<path d="M5.36 446.7 L5.72 446.7 L136.01 446.7" class="st6"/>
		</g>
		<g id="shape27-92" v:mID="27" v:groupContext="shape" v:layerMember="0" transform="translate(127.679,-35.5531)">
			<title>동적 연결선.27</title>
			<path d="M5.36 446.7 L5.72 446.7 L136.01 446.7" class="st6"/>
		</g>
		<g id="shape28-99" v:mID="28" v:groupContext="shape" transform="translate(14.2932,-411.144)">
			<title>시트.28</title>
			<desc>Client Socket</desc>
			<v:textBlock v:margins="rect(4,4,4,4)" v:tabSpace="42.5197"/>
			<v:textRect cx="56.6929" cy="439.61" width="113.39" height="28.3465"/>
			<rect x="0" y="425.437" width="113.386" height="28.3465" class="st7"/>
			<text x="21.07" y="443.21" class="st8" v:langID="1042"><v:paragraph v:horizAlign="1"/><v:tabList/>Client Socket</text>		</g>
		<g id="shape30-102" v:mID="30" v:groupContext="shape" transform="translate(269.411,-411.144)">
			<title>시트.30</title>
			<desc>Server Socket</desc>
			<v:textBlock v:margins="rect(4,4,4,4)" v:tabSpace="42.5197"/>
			<v:textRect cx="56.6929" cy="439.61" width="113.39" height="28.3465"/>
			<rect x="0" y="425.437" width="113.386" height="28.3465" class="st7"/>
			<text x="19.73" y="443.21" class="st8" v:langID="1042"><v:paragraph v:horizAlign="1"/><v:tabList/>Server Socket</text>		</g>
		<g id="shape31-105" v:mID="31" v:groupContext="shape" transform="translate(148.939,-212.718)">
			<title>시트.31</title>
			<desc>connection request</desc>
			<v:textBlock v:margins="rect(4,4,4,4)" v:tabSpace="42.5197"/>
			<v:textRect cx="49.6063" cy="446.697" width="99.22" height="14.1732"/>
			<rect x="0" y="439.61" width="99.2126" height="14.1732" class="st7"/>
			<text x="5.92" y="449.77" class="st2" v:langID="1042"><v:paragraph v:horizAlign="1"/><v:tabList/>connection request</text>		</g>
		<g id="shape34-108" v:mID="34" v:groupContext="shape" transform="translate(122.918,-150.517)">
			<title>시트.34</title>
			<v:textBlock v:margins="rect(4,4,4,4)" v:tabSpace="42.5197"/>
			<rect x="0" y="433.783" width="152" height="20" class="st7"/>
		</g>
		<g id="shape35-110" v:mID="35" v:groupContext="shape" transform="translate(148.939,-113.506)">
			<title>시트.35</title>
			<desc>[ data ]</desc>
			<v:textBlock v:margins="rect(4,4,4,4)" v:tabSpace="42.5197"/>
			<v:textRect cx="49.6063" cy="446.697" width="99.22" height="14.1732"/>
			<rect x="0" y="439.61" width="99.2126" height="14.1732" class="st7"/>
			<text x="33.11" y="449.7" class="st2" v:langID="1042"><v:paragraph v:horizAlign="1"/><v:tabList/>[ data ]</text>		</g>
		<g id="shape37-113" v:mID="37" v:groupContext="shape" transform="translate(141.852,-42.6397)">
			<title>시트.37</title>
			<desc>connecion termination</desc>
			<v:textBlock v:margins="rect(4,4,4,4)" v:tabSpace="42.5197"/>
			<v:textRect cx="56.6929" cy="446.697" width="113.39" height="14.1732"/>
			<rect x="0" y="439.61" width="113.386" height="14.1732" class="st7"/>
			<text x="5.51" y="449.77" class="st2" v:langID="1042"><v:paragraph v:horizAlign="1"/><v:tabList/>connecion termination</text>		</g>
	</g>
</svg>
