<?xml version="1.0" encoding="UTF-8" standalone="no"?>
<!DOCTYPE svg PUBLIC "-//W3C//DTD SVG 1.1//EN" "http://www.w3.org/Graphics/SVG/1.1/DTD/svg11.dtd">
<!-- Microsoft Visio, SVG Export에서 생성되었습니다. tictactoe.svg 페이지-1 -->
<svg xmlns="http://www.w3.org/2000/svg" xmlns:xlink="http://www.w3.org/1999/xlink" xmlns:ev="http://www.w3.org/2001/xml-events"
		xmlns:v="http://schemas.microsoft.com/visio/2003/SVGExtensions/" width="2.37262in" height="2.37262in"
		viewBox="0 0 170.829 170.829" xml:space="preserve" color-interpolation-filters="sRGB" class="st3">
	<v:documentProperties v:langID="1042" v:metric="true" v:viewMarkup="false"/>

	<style type="text/css">
	<![CDATA[
		.st1 {stroke:#000000;stroke-linecap:round;stroke-linejoin:round;stroke-width:0.75}
		.st2 {fill:#ffffff;stroke:#000000;stroke-linecap:round;stroke-linejoin:round;stroke-width:0.24}
		.st3 {fill:none;fill-rule:evenodd;font-size:12px;overflow:visible;stroke-linecap:square;stroke-miterlimit:3}
	]]>
	</style>

	<g v:mID="0" v:index="1" v:groupContext="foregroundPage">
		<title>페이지-1</title>
		<v:pageProperties v:drawingScale="0.0393701" v:pageScale="0.0393701" v:drawingUnits="24" v:shadowOffsetX="8.50394"
				v:shadowOffsetY="-8.50394"/>
		<g id="shape1-1" v:mID="1" v:groupContext="shape" transform="translate(0.375,-113.761)">
			<title>시트.1</title>
			<path d="M0 170.83 L170.08 170.83" class="st1"/>
		</g>
		<g id="shape2-4" v:mID="2" v:groupContext="shape" transform="translate(0.375,-57.0679)">
			<title>시트.2</title>
			<path d="M0 170.83 L170.08 170.83" class="st1"/>
		</g>
		<g id="shape3-7" v:mID="3" v:groupContext="shape" transform="translate(227.897,0.375) rotate(90)">
			<title>시트.3</title>
			<path d="M0 170.83 L170.08 170.83" class="st1"/>
		</g>
		<g id="shape4-10" v:mID="4" v:groupContext="shape" transform="translate(284.59,0.375) rotate(90)">
			<title>시트.4</title>
			<path d="M0 170.83 L170.08 170.83" class="st1"/>
		</g>
		<g id="shape5-13" v:mID="5" v:groupContext="shape" transform="translate(129.157,-92.2144) rotate(45)">
			<title>십자형</title>
			<v:userDefs>
				<v:ud v:nameU="ScaleFactor" v:val="VT0(1):26"/>
				<v:ud v:nameU="ControlX1" v:val="VT0(0):26"/>
				<v:ud v:nameU="ControlY1" v:val="VT0(0.66929133858268):24"/>
				<v:ud v:nameU="ControlX2" v:val="VT0(0.66929133858268):24"/>
				<v:ud v:nameU="ControlY2" v:val="VT0(0):26"/>
				<v:ud v:nameU="visVersion" v:val="VT0(15):26"/>
				<v:ud v:nameU="LockBars" v:prompt="" v:val="VT0(1):5"/>
				<v:ud v:nameU="ControlY1" v:prompt="" v:val="VT0(0.17716535370079):1"/>
				<v:ud v:nameU="ControlX2" v:prompt="" v:val="VT0(0.17716535370079):1"/>
			</v:userDefs>
			<path d="M0 158.07 L12.76 158.07 L12.76 170.83 L15.59 170.83 L15.59 158.07 L28.35 158.07 L28.35 155.24 L15.59 155.24
						 L15.59 142.48 L12.76 142.48 L12.76 155.24 L0 155.24 L0 158.07 Z" class="st2"/>
		</g>
		<g id="shape9-15" v:mID="9" v:groupContext="shape" transform="translate(71.2411,-71.2411)">
			<title>시트.9</title>
			<path d="M0 156.66 A14.1732 14.1732 -180 1 0 28.35 156.66 A14.1732 14.1732 -180 1 0 0 156.66 ZM2.95 156.8 A11.2263 11.2263
						 0 0 1 25.4 156.8 A11.2263 11.2263 0 0 1 2.95 156.8 Z" class="st2"/>
		</g>
		<g id="shape10-17" v:mID="10" v:groupContext="shape" transform="translate(14.5482,-71.2411)">
			<title>시트.10</title>
			<path d="M0 156.66 A14.1732 14.1732 -180 1 0 28.35 156.66 A14.1732 14.1732 -180 1 0 0 156.66 ZM2.95 156.8 A11.2263 11.2263
						 0 0 1 25.4 156.8 A11.2263 11.2263 0 0 1 2.95 156.8 Z" class="st2"/>
		</g>
		<g id="shape11-19" v:mID="11" v:groupContext="shape" transform="translate(186.165,21.3131) rotate(45)">
			<title>십자형.11</title>
			<v:userDefs>
				<v:ud v:nameU="ScaleFactor" v:val="VT0(1):26"/>
				<v:ud v:nameU="ControlX1" v:val="VT0(0):26"/>
				<v:ud v:nameU="ControlY1" v:val="VT0(0.66929133858268):24"/>
				<v:ud v:nameU="ControlX2" v:val="VT0(0.66929133858268):24"/>
				<v:ud v:nameU="ControlY2" v:val="VT0(0):26"/>
				<v:ud v:nameU="visVersion" v:val="VT0(15):26"/>
				<v:ud v:nameU="LockBars" v:prompt="" v:val="VT0(1):5"/>
				<v:ud v:nameU="ControlY1" v:prompt="" v:val="VT0(0.17716535370079):1"/>
				<v:ud v:nameU="ControlX2" v:prompt="" v:val="VT0(0.17716535370079):1"/>
			</v:userDefs>
			<path d="M0 158.07 L12.76 158.07 L12.76 170.83 L15.59 170.83 L15.59 158.07 L28.35 158.07 L28.35 155.24 L15.59 155.24
						 L15.59 142.48 L12.76 142.48 L12.76 155.24 L0 155.24 L0 158.07 Z" class="st2"/>
		</g>
		<g id="shape12-21" v:mID="12" v:groupContext="shape" transform="translate(243.172,-35.3798) rotate(45)">
			<title>십자형.12</title>
			<v:userDefs>
				<v:ud v:nameU="ScaleFactor" v:val="VT0(1):26"/>
				<v:ud v:nameU="ControlX1" v:val="VT0(0):26"/>
				<v:ud v:nameU="ControlY1" v:val="VT0(0.66929133858268):24"/>
				<v:ud v:nameU="ControlX2" v:val="VT0(0.66929133858268):24"/>
				<v:ud v:nameU="ControlY2" v:val="VT0(0):26"/>
				<v:ud v:nameU="visVersion" v:val="VT0(15):26"/>
				<v:ud v:nameU="LockBars" v:prompt="" v:val="VT0(1):5"/>
				<v:ud v:nameU="ControlY1" v:prompt="" v:val="VT0(0.17716535370079):1"/>
				<v:ud v:nameU="ControlX2" v:prompt="" v:val="VT0(0.17716535370079):1"/>
			</v:userDefs>
			<path d="M0 158.07 L12.76 158.07 L12.76 170.83 L15.59 170.83 L15.59 158.07 L28.35 158.07 L28.35 155.24 L15.59 155.24
						 L15.59 142.48 L12.76 142.48 L12.76 155.24 L0 155.24 L0 158.07 Z" class="st2"/>
		</g>
		<g id="shape13-23" v:mID="13" v:groupContext="shape" transform="translate(128.248,-128.076)">
			<title>시트.13</title>
			<path d="M0 156.66 A14.1732 14.1732 -180 1 0 28.35 156.66 A14.1732 14.1732 -180 1 0 0 156.66 ZM2.95 156.8 A11.2263 11.2263
						 0 0 1 25.4 156.8 A11.2263 11.2263 0 0 1 2.95 156.8 Z" class="st2"/>
		</g>
		<g id="shape14-25" v:mID="14" v:groupContext="shape" transform="translate(186.165,-95.5052) rotate(45)">
			<title>십자형.14</title>
			<v:userDefs>
				<v:ud v:nameU="ScaleFactor" v:val="VT0(1):26"/>
				<v:ud v:nameU="ControlX1" v:val="VT0(0):26"/>
				<v:ud v:nameU="ControlY1" v:val="VT0(0.66929133858268):24"/>
				<v:ud v:nameU="ControlX2" v:val="VT0(0.66929133858268):24"/>
				<v:ud v:nameU="ControlY2" v:val="VT0(0):26"/>
				<v:ud v:nameU="visVersion" v:val="VT0(15):26"/>
				<v:ud v:nameU="LockBars" v:prompt="" v:val="VT0(1):5"/>
				<v:ud v:nameU="ControlY1" v:prompt="" v:val="VT0(0.17716535370079):1"/>
				<v:ud v:nameU="ControlX2" v:prompt="" v:val="VT0(0.17716535370079):1"/>
			</v:userDefs>
			<path d="M0 158.07 L12.76 158.07 L12.76 170.83 L15.59 170.83 L15.59 158.07 L28.35 158.07 L28.35 155.24 L15.59 155.24
						 L15.59 142.48 L12.76 142.48 L12.76 155.24 L0 155.24 L0 158.07 Z" class="st2"/>
		</g>
		<g id="shape15-27" v:mID="15" v:groupContext="shape" transform="translate(14.5482,-14.5482)">
			<title>시트.15</title>
			<path d="M0 156.66 A14.1732 14.1732 -180 1 0 28.35 156.66 A14.1732 14.1732 -180 1 0 0 156.66 ZM2.95 156.8 A11.2263 11.2263
						 0 0 1 25.4 156.8 A11.2263 11.2263 0 0 1 2.95 156.8 Z" class="st2"/>
		</g>
		<g id="shape16-29" v:mID="16" v:groupContext="shape" transform="translate(128.248,-14.5482)">
			<title>시트.16</title>
			<path d="M0 156.66 A14.1732 14.1732 -180 1 0 28.35 156.66 A14.1732 14.1732 -180 1 0 0 156.66 ZM2.95 156.8 A11.2263 11.2263
						 0 0 1 25.4 156.8 A11.2263 11.2263 0 0 1 2.95 156.8 Z" class="st2"/>
		</g>
		<g id="shape21-31" v:mID="21" v:groupContext="shape" transform="translate(0.375,-0.375)">
			<title>시트.21</title>
			<path d="M111.4 116.12 L111.4 170.83 L115.37 170.83 L115.37 116.12 L170.08 116.12 L170.08 112.15 L115.37 112.15 L115.37
						 59.43 L170.08 59.43 L170.08 55.46 L115.37 55.46 L115.37 0.75 L111.4 0.75 L111.4 55.46 L58.68 55.46 L58.68
						 0.75 L54.71 0.75 L54.71 55.46 L0 55.46 L0 59.43 L54.71 59.43 L54.71 112.15 L0 112.15 L0 116.12 L54.71 116.12
						 L54.71 170.83 L58.68 170.83 L58.68 116.12 L111.4 116.12 ZM58.68 112.15 L58.68 59.43 L111.4 59.43 L111.4
						 112.15 L58.68 112.15 Z" class="st2"/>
		</g>
	</g>
</svg>
